<svg xmlns="http://www.w3.org/2000/svg" viewBox="0 0 665.6 380.24"><defs><style>.cls-1{fill:#c2f2c2;}.cls-13,.cls-14,.cls-15,.cls-2,.cls-23,.cls-27,.cls-29,.cls-30,.cls-33,.cls-34,.cls-56,.cls-58{fill:none;}.cls-2{stroke:#80c965;}.cls-14,.cls-15,.cls-2,.cls-23,.cls-27,.cls-30,.cls-33,.cls-34,.cls-56,.cls-58{stroke-linecap:round;}.cls-14,.cls-15,.cls-2,.cls-23{stroke-linejoin:round;}.cls-3{fill:#9bd376;}.cls-4{fill:#5cb24d;}.cls-5{fill:#6cbc5c;}.cls-6{fill:#3d9b4e;}.cls-7{opacity:0.72;}.cls-8{fill:#fefffe;}.cls-9{fill:#36d6c1;}.cls-10{fill:#f59e42;}.cls-11{fill:#ed644c;}.cls-12{fill:#012c34;}.cls-13{stroke:#40a0c6;stroke-width:4px;}.cls-13,.cls-27,.cls-29,.cls-30,.cls-33,.cls-34,.cls-56,.cls-58{stroke-miterlimit:10;}.cls-14{stroke:#71c9b8;}.cls-14,.cls-15{stroke-width:8px;}.cls-15{stroke:#2a8fa0;}.cls-16{fill:#6f788c;}.cls-17{fill:#fea483;}.cls-18{fill:#1a132e;}.cls-19{fill:#5c6491;}.cls-20{fill:#e8aa80;}.cls-21{fill:#ede6e7;}.cls-22{fill:#a3b3e3;}.cls-23{stroke:#cf5953;}.cls-23,.cls-27,.cls-29,.cls-30,.cls-34,.cls-56,.cls-58{stroke-width:0.5px;}.cls-24{fill:#d68163;}.cls-25{fill:#1d0100;}.cls-26{fill:#42170d;}.cls-27{stroke:#1d0100;}.cls-28{fill:#262e4a;}.cls-29,.cls-30{stroke:#332c4a;}.cls-31{fill:#53aedb;}.cls-32{fill:#78c8e3;}.cls-33{stroke:#4484b8;}.cls-34{stroke:#bfd2ff;}.cls-35{fill:#bfd2ff;}.cls-36{fill:#242323;}.cls-37{fill:#126d97;}.cls-38{fill:#9ab2a8;}.cls-39{fill:#f2f2f2;}.cls-40{fill:#0f5985;}.cls-41{fill:#33a8b5;}.cls-42{fill:#cfcfcf;}.cls-43{fill:#414046;}.cls-44{fill:#212126;}.cls-45{fill:#fff;}.cls-46{fill:#cfd2d1;}.cls-47{fill:#8e3a23;}.cls-48{fill:#682211;}.cls-49{fill:#8d3b26;}.cls-50{fill:#3d3c73;}.cls-51{fill:#9992ad;}.cls-52{fill:#eb8173;}.cls-53{fill:#27334f;}.cls-54{fill:#3a5b70;}.cls-55{fill:#2e3252;}.cls-56{stroke:#27334f;}.cls-57{fill:#748be9;}.cls-58{stroke:#323b99;}.cls-59{fill:#92c4f7;}</style></defs><g id="OBJECTS"><path class="cls-1" d="M570.91,24c-75.16-39.18-173-29.65-239.23,23.29C301.8,71.18,276,104,238.55,112.07c-33.12,7.11-66.51-7.31-99.63-14.43-31.73-6.83-66.85-6.41-94.29,10.93-34.79,22-49.54,68.31-40.69,108.5s38,73.84,72.91,95.56S152.32,345.39,192.78,353c77.07,14.39,156.66,17.06,234,4,53.06-8.95,105.94-25.81,148.92-58.2s75-82,77.24-135.79S623.8,51.57,570.91,24Z"/><polygon class="cls-2" points="304.47 117.96 304.47 73.02 264.31 50.55 224.15 73.02 224.15 117.96 264.31 140.43 304.47 117.96"/><polygon class="cls-2" points="402.37 122.88 402.37 68.1 353.41 40.72 304.47 72.5 304.47 117.86 353.41 150.26 402.37 122.88"/><line class="cls-2" x1="353.35" y1="40.87" x2="353.35" y2="14.69"/><line class="cls-2" x1="235.31" y1="81.75" x2="267.46" y2="63.39"/><line class="cls-2" x1="401.73" y1="122.77" x2="422.53" y2="138.67"/><polygon class="cls-2" points="90.86 78.44 90.86 112.84 121.59 130.03 152.33 112.84 152.33 78.44 121.59 61.25 90.86 78.44"/><polygon class="cls-2" points="15.94 74.68 15.94 116.6 53.39 137.55 90.86 113.24 90.86 78.53 53.39 53.73 15.94 74.68"/><line class="cls-2" x1="53.45" y1="137.44" x2="53.45" y2="157.48"/><line class="cls-2" x1="143.78" y1="106.15" x2="119.18" y2="120.21"/><line class="cls-2" x1="16.42" y1="74.77" x2="0.5" y2="62.59"/><polygon class="cls-2" points="523.81 157.53 522.87 114.41 483.42 93.68 444.88 116.06 445.81 159.17 485.29 179.9 523.81 157.53"/><polygon class="cls-2" points="618.97 160.23 617.84 107.69 569.73 82.42 522.86 113.91 523.8 157.42 572 187.51 618.97 160.23"/><line class="cls-2" x1="569.67" y1="82.57" x2="569.13" y2="57.46"/><line class="cls-2" x1="455.9" y1="124.21" x2="486.74" y2="105.94"/><line class="cls-2" x1="618.35" y1="160.15" x2="638.88" y2="174.97"/><path class="cls-3" d="M474.87,379.89c-8.57-40.19-.93-83.67,20.71-117.88s57-58.71,95.87-66.41a185.51,185.51,0,0,1-28.3,109.81C542.66,337.48,511.88,362.32,474.87,379.89Z"/><path class="cls-4" d="M586.64,200.27c-6.15,6-12.11,12.19-17.9,18.56,0-.06-.07-.14-.11-.24a18.6,18.6,0,0,1-.61-1.92l-2.61-8.27c-.27-.87-1.54-.33-1.26.54.9,2.82,1.8,5.63,2.69,8.45a8.51,8.51,0,0,0,.91,2.52,448.47,448.47,0,0,0-29.26,36,63.81,63.81,0,0,0-13.26-23.2c-.59-.64-1.65.18-1.06.83a58.48,58.48,0,0,1,13.31,23.77c-.83,1.14-1.66,2.28-2.47,3.43a458.74,458.74,0,0,0-25.46,40.06,82.7,82.7,0,0,0-15.23-25.21c-.61-.69-1.73.18-1.11.88a80.88,80.88,0,0,1,15.42,25.94q-7.41,13.23-14,27-2.58,5.42-5,10.89a93.11,93.11,0,0,0-12.27-16.63c-.64-.69-1.8.21-1.15.91A87.57,87.57,0,0,1,488.93,342q-6.33,14.43-11.68,29.29c-.31.85.95,1.42,1.26.57q5.22-14.42,11.4-28.42a.73.73,0,0,0,.75-.06,62.65,62.65,0,0,1,15.71-7.6,56.45,56.45,0,0,1,8.51-2c2.89-.44,5.77-.46,8.67-.7.75-.06.78-1.35,0-1.4a41.8,41.8,0,0,0-8.86.66,64.38,64.38,0,0,0-8.67,2,58.7,58.7,0,0,0-15.25,7.11q8.48-19,18.58-37.23a.74.74,0,0,0,.75.14A96.8,96.8,0,0,1,551,296.2c.76,0,.77-1.36,0-1.39a92.54,92.54,0,0,0-40.76,7.84v0c.63-1.12,1.24-2.25,1.88-3.37a457.34,457.34,0,0,1,26.81-41.49,36.47,36.47,0,0,1,31.08-.55c.79.35,1.3-.89.52-1.26a37.25,37.25,0,0,0-29.79-.62q8-10.83,16.54-21.17,5.82-7,11.93-13.72a10.29,10.29,0,0,0,1.94-.66,19.93,19.93,0,0,1,14.68,1c.8.35,1.27-.86.52-1.26a20,20,0,0,0-13.16-1.73,21,21,0,0,0-2.07.55q8-8.7,16.38-17C588.1,200.78,587.28,199.65,586.64,200.27Z"/><path class="cls-5" d="M479.56,375.91a133.37,133.37,0,0,1,186-75C621.63,353,548.93,379,479.56,375.91Z"/><path class="cls-6" d="M657.19,301.09c-7.4.23-14.78.86-22.11,1.82a48.64,48.64,0,0,0,4.39-8,.63.63,0,0,0-1.15-.49,44,44,0,0,1-5,8.74,244.08,244.08,0,0,0-30.39,6.25,55.11,55.11,0,0,0,4.54-19.07c0-.81-1.21-1-1.25-.18a53,53,0,0,1-4.72,19.33.62.62,0,0,0,0,.33q-9,2.51-17.81,5.64-9.84,3.51-19.39,7.76a96.12,96.12,0,0,0-.54-26.62c-.13-.8-1.38-.65-1.25.16a91,91,0,0,1,.32,27.12,308.7,308.7,0,0,0-31.34,16.36c0-.08-.08-.14-.11-.22a14.73,14.73,0,0,1-.39-3.19c-.23-2.08-.55-4.16-1-6.22a71,71,0,0,0-4-13.07.62.62,0,0,0-1.14.47,69,69,0,0,1,3.72,12.07c.43,2.05.76,4.13,1,6.21.16,1.47,0,3.26.68,4.67-4.71,2.83-9.37,5.77-13.93,8.82-2.65,1.77-5.28,3.59-7.88,5.43a34.68,34.68,0,0,1-1.43-3.65c-1.39-3.48-2.75-7-4.12-10.46a.61.61,0,0,0-1.13.47c1.37,3.49,2.76,7,4.11,10.47a41.71,41.71,0,0,0,1.5,3.93q-13.1,9.33-25.33,19.79c-.78.67.19,1.95,1,1.28q12.17-10.45,25.19-19.82a13.88,13.88,0,0,0,3,2,48.69,48.69,0,0,1,7.48,5.69,68.4,68.4,0,0,1,6.41,7.2.66.66,0,0,0,1-.8A46,46,0,0,0,513,358.85a26.72,26.72,0,0,1-3.69-2.38l0,0q10.6-7.56,21.75-14.3a16.71,16.71,0,0,0,3.26,2.21c1.54,1,3,2,4.47,3.11a57.74,57.74,0,0,1,8,7.4,65.6,65.6,0,0,1,7.2,9.93c.37.61,1.44,0,1.09-.63a57.76,57.76,0,0,0-13.25-16A80.13,80.13,0,0,0,533.2,342a7.87,7.87,0,0,1-.87-.65q6.48-3.86,13.13-7.41,8.73-4.65,17.77-8.73A59.14,59.14,0,0,1,588,352.29c.35.77,1.57.28,1.22-.51a60.2,60.2,0,0,0-24.45-27.26,271.33,271.33,0,0,1,38.11-13.71,29.68,29.68,0,0,1,16.9,23.6.64.64,0,0,0,1.26-.16,31.32,31.32,0,0,0-16.28-23.95q5.34-1.43,10.75-2.62,8.73-1.9,17.57-3.15a.76.76,0,0,0,.32.17A17.24,17.24,0,0,1,639.9,308a62,62,0,0,1,5.19,5.06c.53.53,1.38-.34.92-.91a33.88,33.88,0,0,0-5.62-5.48,18.51,18.51,0,0,0-4.32-2.54c7.06-.9,14.17-1.48,21.29-1.71C658.2,302.36,658,301.06,657.19,301.09Z"/><path class="cls-5" d="M468.21,376.31A131.53,131.53,0,0,1,446.49,190c19.71,27.38,37.48,57.1,44.38,90.12S492.34,350.16,468.21,376.31Z"/><path class="cls-6" d="M488.46,313.53c-12.09,2.4-23.3,9.35-31.7,18.29-1.48-8.08-2.73-16.21-3.87-24.34q-.79-5.67-1.49-11.37a1,1,0,0,0,.25-.21,41.19,41.19,0,0,1,6.78-6.48,60.93,60.93,0,0,1,7.55-5.2,60.2,60.2,0,0,1,17.43-6.8c.91-.2.74-1.65-.18-1.45a62.15,62.15,0,0,0-25.54,12.16c-2.34,1.87-4.39,4-6.53,6.06q-2.45-20.32-3.61-40.77a.77.77,0,0,0,.62-.26,69.29,69.29,0,0,1,10.93-9.81,72.82,72.82,0,0,1,12.88-7,.77.77,0,0,0-.59-1.42,60.39,60.39,0,0,0-13.19,7.28,63.23,63.23,0,0,0-10.73,9.55c-.26-4.74-.48-9.48-.63-14.22q-.3-9.27-.3-18.55c.8-.35,1.48-1.39,2.07-2a34.87,34.87,0,0,1,2.83-2.46,36.59,36.59,0,0,1,6.56-4c.82-.4.3-1.69-.54-1.31a33.89,33.89,0,0,0-5.95,3.45c-1,.69-1.89,1.43-2.78,2.21-.49.44-1,.88-1.44,1.35-.25.24-.5.59-.76.86q0-9.81.31-19.61c0-.8-1.22-1-1.24-.18q-.32,9.84-.32,19.67l0,0a11.83,11.83,0,0,0-1.3-.93,14.71,14.71,0,0,0-2.74-1.32,36.14,36.14,0,0,0-6.4-1.53.71.71,0,0,0-.21,1.41,31.62,31.62,0,0,1,6.71,1.71,11.88,11.88,0,0,1,3,1.81,8.84,8.84,0,0,0,1,.79q0,16.14.81,32.26a40.19,40.19,0,0,0-20.8-4c-.88.07-.71,1.43.17,1.36a37.23,37.23,0,0,1,20.72,4.26q.4,7.71,1,15.41,1,12.69,2.44,25.35a41.16,41.16,0,0,0-25-5.72c-1,.11-.79,1.58.19,1.54a46.41,46.41,0,0,1,13.34,1.21,45.25,45.25,0,0,1,11.75,5.08q2.24,18.68,5.63,37.17a40,40,0,0,0-18.43-2.4.77.77,0,0,0,.19,1.52,38.39,38.39,0,0,1,18.45,2.58l.11,0c.24,1.3.47,2.6.72,3.9a192.28,192.28,0,0,0,4.52,18.78,19.61,19.61,0,0,0-3.34-1.58,18.35,18.35,0,0,0-7.32-1.22c-1,.07-1,1.69,0,1.75a22.26,22.26,0,0,1,7.81,1.51,27.12,27.12,0,0,0,3.18,1.61l.35.06a112.77,112.77,0,0,0,6,15.06c.43.88,1.85.3,1.41-.58a103.44,103.44,0,0,1-6-15.14c.18-.2.35-.41.53-.63,3.27-4,8.87-5.87,13.53-7.61.87-.33.32-1.67-.56-1.34-4.53,1.68-9.27,3.46-12.87,6.8-.39.36-.76.75-1.14,1.13-1.5-5-2.74-10.09-3.81-15.17q-.86-4.06-1.62-8.16a60.8,60.8,0,0,1,14.12-11.54,68.43,68.43,0,0,1,17.64-7.07C489.75,314.85,489.36,313.35,488.46,313.53Z"/><g class="cls-7"><circle class="cls-8" cx="359.82" cy="337.13" r="23.93" transform="translate(-51.62 608.87) rotate(-76.58)"/><rect class="cls-8" x="353.83" y="272.37" width="11.97" height="64.76"/><path class="cls-8" d="M348.2,273v-4a.82.82,0,0,1,.82-.82H370.6a.82.82,0,0,1,.82.82v4a.82.82,0,0,1-.82.82H349A.81.81,0,0,1,348.2,273Z"/><path class="cls-9" d="M376.71,337.13a16.89,16.89,0,0,1-33.78,0,16.55,16.55,0,0,1,2.73-9.15H374A16.54,16.54,0,0,1,376.71,337.13Z"/><circle class="cls-8" cx="306.02" cy="337.13" r="23.93"/><rect class="cls-8" x="300.04" y="272.37" width="11.97" height="64.76"/><path class="cls-8" d="M294.41,273v-4a.82.82,0,0,1,.82-.82h21.58a.82.82,0,0,1,.82.82v4a.82.82,0,0,1-.82.82H295.23A.81.81,0,0,1,294.41,273Z"/><path class="cls-10" d="M322.92,337.13a16.89,16.89,0,0,1-33.78,0c0-.56,0-1.1.08-1.63h33.62C322.89,336,322.92,336.57,322.92,337.13Z"/><circle class="cls-8" cx="415.49" cy="337.13" r="23.93"/><rect class="cls-8" x="409.5" y="272.37" width="11.97" height="64.76"/><path class="cls-8" d="M403.87,273v-4a.82.82,0,0,1,.82-.82h21.58a.82.82,0,0,1,.82.82v4a.82.82,0,0,1-.82.82H404.69A.81.81,0,0,1,403.87,273Z"/><path class="cls-11" d="M431.42,342.71a16.88,16.88,0,0,1-31.88,0Z"/></g><rect class="cls-12" x="272.25" y="326.6" width="177" height="5.13"/><rect class="cls-12" x="331.05" y="330.02" width="3.42" height="41.59"/><rect class="cls-12" x="385.77" y="331.73" width="3.42" height="41.59"/><rect class="cls-12" x="443.06" y="331.73" width="3.42" height="41.59"/><rect class="cls-12" x="274.61" y="331.73" width="3.42" height="41.59"/><path class="cls-3" d="M181.14,369.61a134.62,134.62,0,0,0-13.3-112.9A134.6,134.6,0,0,0,72,195.59,171.53,171.53,0,0,0,94.25,295.88C111.68,326,138.58,350.52,181.14,369.61Z"/><path class="cls-4" d="M180.07,367.5q-4.63-11.62-9.5-23.15s0,0,.05-.07A26.52,26.52,0,0,1,182.42,333a.67.67,0,0,0-.57-1.22,29.17,29.17,0,0,0-11.95,11c-4.31-10.15-8.8-20.22-13.57-30.15,4.81-12.17,11.93-24,21.45-33.05.63-.6-.28-1.64-.86-1a118.58,118.58,0,0,0-12.65,15.7A95.78,95.78,0,0,0,155.52,311c-2.7-5.57-5.47-11.1-8.36-16.58q-4.65-8.81-9.68-17.4a69.23,69.23,0,0,1,16-28.47c.58-.63-.28-1.66-.86-1a72.34,72.34,0,0,0-16.05,27.86,365.93,365.93,0,0,0-22.61-34,.76.76,0,0,0,.19-.38,68.12,68.12,0,0,1,9.36-23.19c.44-.7-.58-1.44-1-.75a63.31,63.31,0,0,0-9.42,23.1c-2.27-3-4.58-5.93-7-8.83q-6.56-8-13.68-15.52a32.24,32.24,0,0,1,.93-6.1,45.2,45.2,0,0,1,2-5.75c.31-.78-.82-1.14-1.18-.44a29.76,29.76,0,0,0-3,11.07q-6.69-7-13.88-13.43c-.57-.51-1.25.46-.69,1q6.8,6.09,13.11,12.66a32.09,32.09,0,0,0-12,.31.64.64,0,0,0,.23,1.25,30.77,30.77,0,0,1,13.2,0,292.26,292.26,0,0,1,20.41,24c-10.79.57-20.44,6.22-29.5,11.71-.67.41-.15,1.53.53,1.12,9.13-5.53,19-11.38,29.93-11.58q6.23,8.23,11.93,16.85c4,6.08,7.87,12.28,11.55,18.57a.24.24,0,0,0,0,.08c-14.6-2.2-28.66,5.64-40.44,13.32-.79.51.16,1.63.94,1.12,11.84-7.72,25.31-15.09,39.94-13a.67.67,0,0,0,.43-.1c6.27,10.84,12,22,17.48,33.26A80.08,80.08,0,0,0,118,320a.62.62,0,0,0,.53,1.12,78.15,78.15,0,0,1,36.55-8q3.24,6.8,6.34,13.65Q165,334.8,168.45,343a37.56,37.56,0,0,0-10.2-.74,32.94,32.94,0,0,0-11.9,2.76c-.81.39-.23,1.52.58,1.24a43,43,0,0,1,11.17-2.58,37,37,0,0,1,11.05,1q4.95,11.71,9.64,23.55C179.11,369,180.42,368.36,180.07,367.5Z"/><path class="cls-5" d="M178.84,369.27C139.56,308.46,66.92,281.78,1.43,304.12,41.44,363.87,110.14,394.07,178.84,369.27Z"/><path class="cls-6" d="M175.3,366.65q-12.6-5.29-25.28-10.39a87.81,87.81,0,0,1-2.3-12.58,107.81,107.81,0,0,1-.37-13.57c0-.82-1.22-.95-1.28-.11a81.7,81.7,0,0,0,2.48,25.66q-12.36-5-24.75-9.87v-.07a69.87,69.87,0,0,1-1.47-25.85.62.62,0,0,0-1.23-.11,76.65,76.65,0,0,0-.46,13,94,94,0,0,0,1.65,12.4l-11.79-4.67-17.06-6.75a.76.76,0,0,0,0-.59,64.66,64.66,0,0,1-3.36-29.76c.12-.85-1.27-1-1.34-.12a78.66,78.66,0,0,0,0,15.42,69.23,69.23,0,0,0,3.33,14.49l0,0c-12-4.71-24-9.35-36.09-13.7-.06-.22-.12-.45-.2-.7a46.27,46.27,0,0,1-1.63-17.55.64.64,0,0,0-1.27-.11,47.51,47.51,0,0,0,1.19,16.25c.13.52.33,1.07.5,1.61q-4.31-1.53-8.63-3c-5.59-1.91-11.21-3.73-16.87-5.42a39.29,39.29,0,0,1-2-5.21c-.57-1.86-.88-3.75-1.29-5.64a.63.63,0,0,0-1.23.22,32.37,32.37,0,0,0,2.89,10.14c-6.14-1.8-12.33-3.45-18.57-4.9-.81-.19-1.27,1-.46,1.22,6.22,1.43,12.39,3.08,18.5,4.87a26.22,26.22,0,0,0-9.18,7.38c-.52.66.54,1.4,1.06.75a24.92,24.92,0,0,1,10-7.57c8.75,2.61,17.41,5.54,26,8.64-.13.8-1,1.24-1.6,1.76a79,79,0,0,0-7.65,7.21,52.86,52.86,0,0,0-6.48,8,.7.7,0,0,0,1.14.81c2.37-2.88,4.53-5.86,7.11-8.57s5.3-4.88,8-7.32a2.28,2.28,0,0,0,.82-1.41c5.78,2.09,11.53,4.26,17.27,6.46s11.61,4.48,17.41,6.75a68.39,68.39,0,0,0-19.58,23.64c-.36.72.81,1.14,1.17.44a67.18,67.18,0,0,1,19.83-23.53q14.5,5.67,29,11.46c-8,5.19-13.93,13.69-19.07,21.53a.67.67,0,0,0,1.09.77c2.88-4.07,5.62-8.22,8.86-12a50.29,50.29,0,0,1,10.77-9.62c5.12,2.05,10.25,4.09,15.37,6.16,3.37,1.36,6.72,2.74,10.08,4.12a79.07,79.07,0,0,0-12.75,14.93c-.44.68.58,1.4,1,.73a78.16,78.16,0,0,1,13.05-15.12q12.6,5.16,25.2,10.3C175.65,368.3,176.13,367,175.3,366.65Z"/><line class="cls-13" x1="383.46" y1="110.9" x2="423.26" y2="140.67"/><line class="cls-13" x1="437.34" y1="30.97" x2="486.55" y2="70.66"/><line class="cls-13" x1="429.91" y1="49.4" x2="470" y2="81.73"/><line class="cls-13" x1="409.56" y1="75.02" x2="447.48" y2="105.6"/><line class="cls-13" x1="391.27" y1="87.97" x2="440.49" y2="127.66"/><line class="cls-13" x1="360.71" y1="139.8" x2="395.15" y2="169.25"/><path class="cls-14" d="M491.62,64s-18,28-47.93,16.22S399.61,78,391,88.61c-16.51,20.49-2.59,43.72.7,53.29,6.57,19.07,6.42,39.86-11.51,60.35"/><path class="cls-15" d="M442.74,24.62s-23.55,23.6-5.65,50.3,11.59,42.59,3,53.24c-16.51,20.48-42.16,11.82-52.22,10.64-20-2.37-40.31,2.2-56.52,24.07"/><path class="cls-16" d="M449.74,313.67a390.55,390.55,0,0,1,51.4-2.49,70.14,70.14,0,0,1-6.75-29.9c0-1.33-.08-2.9-1.2-3.63a4.07,4.07,0,0,0-3.13-.09,94.44,94.44,0,0,1-39.5,1C454.4,289.2,455.55,300.84,449.74,313.67Z"/><polygon class="cls-17" points="454.51 372.88 454.74 358.42 465.93 358.47 464.29 371.09 454.51 372.88"/><path class="cls-18" d="M441.17,379.39c.49,1.46,24.28.83,25.38-.37a1.77,1.77,0,0,0,.29-1.34c-.2-2.39-1.95-6.56-2-6.83-5.24.42-6.75.3-11.55.44-1.55.79-10.47,3.45-12,6.76A1.66,1.66,0,0,0,441.17,379.39Z"/><path class="cls-19" d="M441.17,379.39c.49,1.46,24.28.83,25.38-.37a1.77,1.77,0,0,0,.29-1.34,98.34,98.34,0,0,1-13.25,1.2,113.2,113.2,0,0,1-12.3-.83A1.62,1.62,0,0,0,441.17,379.39Z"/><polygon class="cls-17" points="488.23 372.15 486.1 359.06 496.68 356.59 497.99 370.26 488.23 372.15"/><path class="cls-18" d="M474.94,378.78c.51,1.45,24.29.61,25.37-.6a1.77,1.77,0,0,0,.28-1.34c-.22-2.39-2-6.54-2.08-6.81-5.23.47-6.75.36-11.55.54-1.54.81-10.43,3.55-11.92,6.87A1.66,1.66,0,0,0,474.94,378.78Z"/><path class="cls-19" d="M474.94,378.78c.51,1.45,24.29.61,25.37-.6a1.77,1.77,0,0,0,.28-1.34,100,100,0,0,1-13.24,1.32,109.84,109.84,0,0,1-12.31-.72A1.66,1.66,0,0,0,474.94,378.78Z"/><polygon class="cls-18" points="454.76 249.9 451.89 369.36 467.07 369 473.37 293.39 484.99 368.41 500.61 368.41 491.17 248.14 454.76 249.9"/><polygon class="cls-20" points="411.99 201.81 417.07 208.29 412.26 216.34 408.05 209.94 411.99 201.81"/><path class="cls-21" d="M458.78,209.94l-1.68-6.79a19.31,19.31,0,0,0-7.62,5.45c-2.75,3.26-17.64,14.32-17.64,14.32L417.08,205.1l-8.69,12.71S422,244,429.1,244s25.82-9.42,25.82-9.42Z"/><polygon class="cls-22" points="411.03 224.64 422.31 209.77 417.32 204.74 406.65 216.85 411.03 224.64"/><line class="cls-13" x1="374.54" y1="176.26" x2="426.65" y2="222.26"/><path class="cls-20" d="M411,199.87c-2.8-2.51-5.91-2.63-10.59-2.44-.59,0-2.17.25-2,1.26.09.69,1.2,1.22,1.81,1.41a14.42,14.42,0,0,0,5,.49,7.64,7.64,0,0,0,4.11,3.61c1,2.07,2.49,2.9,5.31,2.9C415.91,204.75,413.83,202.37,411,199.87Z"/><path class="cls-20" d="M396.18,204.84a1.63,1.63,0,0,0,1.12,1.9c2.08.72,5.77-2.63,6.15-4.21.43-1.8-1.52-1.57-3.1-1C399.69,201.75,396.51,203.12,396.18,204.84Z"/><path class="cls-20" d="M399.27,206.46a1.63,1.63,0,0,0,1.12,1.9c2.08.72,5.77-2.63,6.15-4.21.43-1.8-1.52-1.57-3.1-1C402.78,203.36,399.6,204.74,399.27,206.46Z"/><path class="cls-20" d="M402,208.65a1.63,1.63,0,0,0,1.12,1.9c2.08.72,5.77-2.63,6.15-4.21.43-1.8-1.52-1.57-3.1-1C405.51,205.55,402.33,206.92,402,208.65Z"/><path class="cls-20" d="M403.91,211.1A1.63,1.63,0,0,0,405,213c2.08.72,5.77-2.63,6.15-4.21.43-1.8-1.52-1.57-3.1-1C407.42,208,404.24,209.38,403.91,211.1Z"/><path class="cls-23" d="M399.59,206.49a22.61,22.61,0,0,0,3.27-2.91"/><path class="cls-23" d="M402.44,208.16a19.2,19.2,0,0,0,3.29-2.53"/><path class="cls-23" d="M404.5,210.6a15.59,15.59,0,0,0,3.73-2.72"/><path class="cls-20" d="M460.6,202.1s11.22,11.08,12.48,11.14c1.93.1,18.26-8.64,18.26-8.64a71.67,71.67,0,0,1-6.66-4.34c-1.05-.9-1.73-5.83-2.05-8.6-.24-2.13-.36-3.8-.36-3.8l-11.55-1.49s-1,10.47-1.14,11.73a10,10,0,0,1-.35,1.72C468.59,201.44,460.6,202.1,460.6,202.1Z"/><path class="cls-24" d="M469.57,198.11c7.05,1.31,11.32-3.76,13.05-6.44-.24-2.13-.36-3.8-.36-3.8l-11.55-1.49s-.26,3.55-.59,7C470,195.14,469.76,196.86,469.57,198.11Z"/><path class="cls-24" d="M457.67,178.6c.73-1.57,3-2.06,5.11-1.08s3.2,3,2.47,4.61-3,2.05-5.11,1.08S456.94,180.18,457.67,178.6Z"/><path class="cls-20" d="M486.7,180.81c1.85-8.91-1-17.43-8.14-18.9s-13.4,0-16.2,13.46c-1.78,8.59-1.18,17.13,6.81,19.34C477.82,196.5,484.85,189.72,486.7,180.81Z"/><path class="cls-24" d="M483.19,181.66c-.43-1.24-.83-3.14-1.3-4.28a5.57,5.57,0,0,1-3.34-5.41,12,12,0,0,1-5.39,2.23,3,3,0,0,1-2-.22,1.68,1.68,0,0,1-.58-2.26,16.89,16.89,0,0,1-6.64.66,20.36,20.36,0,0,0-2.3,8,42.11,42.11,0,0,1,1.1-10,152.39,152.39,0,0,1,18.1-4.66,47.46,47.46,0,0,1,6.59,7.25A69.38,69.38,0,0,1,483.19,181.66Z"/><path class="cls-25" d="M487.7,184.49c-1.5.66-2.52.87-4.18,1.49-.59-2.94-.8-5.85-1.19-8.81-1.62-1.18-3.51-5.48-2.67-7.47-3.43,3.37-6.31,4-7.54,3.32-1.41-.82.47-2.78.76-3.07a23.24,23.24,0,0,1-9.36,2,31.44,31.44,0,0,0-1.94,9.7c-1-2.82-.68-7.4-.05-10.17a3.25,3.25,0,0,1-2.44-2.37,2.17,2.17,0,0,1,0-1,4.09,4.09,0,0,1,3.87-2.7c-2.42-2-2.39-3.76-.26-5.59,3.84-3.3,12.34-3,17.33.8-.05-.52-1.11-2.1,0-2.19a5.93,5.93,0,0,1,4.73,2.56,7.09,7.09,0,0,1,1.33,3.87,6.7,6.7,0,0,1,5.54,6.06C491.83,174.53,491.11,177.15,487.7,184.49Z"/><path class="cls-26" d="M484.77,161l-.09-.07a2.54,2.54,0,0,0-2.62-.6,1.76,1.76,0,0,0-.85,1.38,4.68,4.68,0,0,0,.27,1.78,19,19,0,0,0-14.84-3.83c-1.52.26-3.22.9-3.72,2.36s.6,3.19,2.14,4.45a5.5,5.5,0,0,0-6,2.63,2.17,2.17,0,0,1,0-1,4.09,4.09,0,0,1,3.87-2.7c-2.42-2-2.39-3.76-.26-5.59,3.84-3.3,12.34-3,17.33.8,0-.52-1.11-2.1,0-2.19A5.93,5.93,0,0,1,484.77,161Z"/><path class="cls-20" d="M485.45,181.94c2.35-.23,4.39,1.05,4.57,2.87s-1.59,3.47-3.93,3.69-4.4-1.05-4.57-2.87S483.1,182.16,485.45,181.94Z"/><path class="cls-27" d="M479.15,177a4.41,4.41,0,0,0-5.2-1.47"/><path class="cls-27" d="M463.54,174.71a2.87,2.87,0,0,1,4.2.46"/><path class="cls-28" d="M472.19,181.9c.12-.56.56-.94,1-.85a.94.94,0,0,1,.57,1.17c-.12.56-.56.94-1,.85A.94.94,0,0,1,472.19,181.9Z"/><path class="cls-28" d="M462.78,180a.82.82,0,1,1,.56,1.17A.93.93,0,0,1,462.78,180Z"/><path class="cls-23" d="M468.66,181.68a3.25,3.25,0,0,1-1.8,2.41,4.11,4.11,0,0,0,.8,1.85"/><path class="cls-23" d="M468.36,188.42s2.2.78,5.59-1"/><path class="cls-29" d="M475.24,177.38a3.91,3.91,0,1,1-3.91,3.91A3.91,3.91,0,0,1,475.24,177.38Z"/><path class="cls-29" d="M460.63,180.05a3.61,3.61,0,1,1,3.25,4.21A3.76,3.76,0,0,1,460.63,180.05Z"/><path class="cls-29" d="M471.75,179.59a4.47,4.47,0,0,0-3.91-.44"/><path class="cls-30" d="M479.13,180.61a14.75,14.75,0,0,1,4,1.64"/><path class="cls-31" d="M490.77,203.6l-4.69-3.2-12.59,12.33c-1.67-2.3-4.91-6.1-5.53-12.06l-7.28,2-2.33,53.93,32-.94Z"/><path class="cls-32" d="M473.47,212.73c4.26-4.26,9.32-10.2,10.9-13.12l2.26.78-1.94,12.37C482,211.15,478,210.8,473.47,212.73Z"/><path class="cls-32" d="M473.47,212.74a64.81,64.81,0,0,1-4.81-12.58l-3.73,1.28-.32,10.72a8.48,8.48,0,0,1,4.44-.79A27.47,27.47,0,0,1,473.47,212.74Z"/><path class="cls-33" d="M473.37,213.25c-2.79,14.36-4.54,25.54-4.54,42.37"/><path class="cls-34" d="M449.83,241.06l9.73,2.66"/><path class="cls-8" d="M468.19,199.83s-2.75,10.71-4.52,19.75a327.25,327.25,0,0,0-5.31,38.77,369.33,369.33,0,0,0,0,55.32H447.17s1.64-101.66,6.4-108.13C456,202.25,468.19,199.83,468.19,199.83Z"/><path class="cls-35" d="M468.63,199.62s-3.59,15.84-4.71,21.63-2.71,12.93-2.71,12.93-6.47-8.05-5.81-9.37,4.84-4.26,4.84-4.26-6-4.34-5.19-5.53,5.74-12.76,7.86-14.22C464.12,200,468.63,199.62,468.63,199.62Z"/><polygon class="cls-35" points="446.93 298.9 452.93 296.59 452.93 293.68 447.16 295.12 446.93 298.9"/><path class="cls-20" d="M435.16,223.36a23.33,23.33,0,0,0-2.27-6.31,7.74,7.74,0,0,0-5.22-3.89,5.51,5.51,0,0,0-5.38,2.36c.6.59,1.19,1.18,1.83,1.92a27.47,27.47,0,0,0-6.38.87c-.91.23-1.94.66-2.16,1.57a1.78,1.78,0,0,0,.67,1.7,4,4,0,0,0,1.61.72,2.66,2.66,0,0,0,.5,2.41,3.65,3.65,0,0,0,2.38,1.15,2.52,2.52,0,0,0,1,2.4,2.8,2.8,0,0,0,2.58.3,3.09,3.09,0,0,0,3.14,2.25c1.4,0,3.23-1.17,4.57-1.67A18.12,18.12,0,0,0,435.16,223.36Z"/><polygon class="cls-20" points="430.24 228.24 436.39 232.75 438.13 222.57 433.85 220.55 430.24 228.24"/><path class="cls-8" d="M498.79,209.86c-1.73-6.11-13.72-10.25-13.72-10.25s-9,8.67-10.51,24.18c-2.05,21.34,6.24,89.88,6.24,89.88L504.68,312S503,224.8,498.79,209.86Z"/><rect class="cls-35" x="490.66" y="287.61" width="2.86" height="14.99" transform="translate(138.47 746.98) rotate(-82.91)"/><path class="cls-35" d="M473.8,232s-.6-11.75,3.54-21.15a80.4,80.4,0,0,1,6.79-11.77l6.35,2.69s-5.57,12.64-5.86,16c-.09,1.1-5.66,3-5.66,3l4.58,6.23Z"/><path class="cls-8" d="M497.47,208.3c-1.31-2.28-5-6-8-4.24-4.92,2.8-21.78,24-21.78,24l-30-5.38-2.3,13.54s29.39,10.53,35.76,8.74,23.26-15.89,25.79-22.47S499.23,211.39,497.47,208.3Z"/><path class="cls-34" d="M475.09,243c7-4.21,14.84-8.38,19.8-14"/><path class="cls-34" d="M485.42,237c3.1,0,7.55-1.19,9.47-2.57"/><polygon class="cls-35" points="440.68 222.33 440.68 241.19 433.31 238.29 435.16 220.78 440.68 222.33"/><path class="cls-35" d="M156.86,61.06l2.62-8.68s6,2.86,7.85,5.77,12.29,11.93,14.09,11.37,2.48-18,2.48-18l9.6,5.09s0,25-5.84,26.4-29.56-7.33-29.56-7.33Z"/><rect class="cls-36" x="288.93" y="300.49" width="26.3" height="13.15" transform="translate(-113.95 195.45) rotate(-30.45)"/><polygon class="cls-36" points="295.21 297.99 274.37 263.66 287.59 255.92 307.93 290.51 295.21 297.99"/><rect class="cls-37" x="257.47" y="225.75" width="115.7" height="15.31" transform="translate(-74.8 191.99) rotate(-30.45)"/><path class="cls-38" d="M307.41,318.38c-24.24,15.14-117.54,7.57-132.27-67-7.58-38.4,20.06-71.26,23.44-85.54,2.72-11.46-10.12-32.25-10.12-32.25l10.21-7.09,31.13,53.21s-45.59,46.73-5.42,83.88c23.2,21.45,43.74,14.31,53.23,5.32Z"/><rect class="cls-39" x="278.63" y="208.7" width="26.82" height="18.41" transform="translate(-71.51 193.43) rotate(-32.88)"/><rect class="cls-39" x="306.55" y="193.99" width="15.11" height="13.67" transform="translate(-58.71 202.67) rotate(-32.88)"/><rect class="cls-39" x="264.06" y="222.59" width="11.57" height="13.67" transform="matrix(0.84, -0.54, 0.54, 0.84, -81.32, 183.22)"/><rect class="cls-37" x="185.62" y="51.58" width="24.19" height="62.06" transform="translate(-13.18 120.56) rotate(-32.88)"/><rect class="cls-40" x="183.52" y="55.75" width="12.1" height="51.39" transform="translate(-13.85 115.95) rotate(-32.88)"/><rect class="cls-41" x="191.61" y="94.47" width="31.55" height="6.84" transform="translate(-19.92 128.25) rotate(-32.88)"/><rect class="cls-41" x="163.8" y="50.81" width="30.5" height="6.84" transform="translate(-0.76 105.88) rotate(-32.88)"/><rect class="cls-39" x="224" y="89.89" width="35.96" height="123.05" transform="matrix(0.84, -0.54, 0.54, 0.84, -43.44, 155.6)"/><rect class="cls-42" x="225.44" y="94.77" width="17.98" height="123.05" transform="translate(-47.3 152.29) rotate(-32.88)"/><rect class="cls-37" x="219.25" y="112.67" width="19.2" height="92.56" transform="translate(-49.63 149.67) rotate(-32.87)"/><rect class="cls-43" x="249.67" y="195.55" width="79.41" height="15.79" transform="translate(-64.09 189.66) rotate(-32.88)"/><circle class="cls-44" cx="215.85" cy="157.78" r="13.15" transform="translate(-43.74 93.76) rotate(-22.31)"/><circle class="cls-43" cx="215.85" cy="157.78" r="10.43" transform="translate(-43.78 93.93) rotate(-22.35)"/><path class="cls-39" d="M226.81,275.3l-47.08,92.2H283.86L264,280C259.87,261.79,235.29,258.71,226.81,275.3Z"/><path class="cls-45" d="M344.81,373.68v5.47H159.69v-5.47A13.66,13.66,0,0,1,165,363.07a18.07,18.07,0,0,1,11.39-3.9H328.11C337.33,359.16,344.81,365.66,344.81,373.68Z"/><path class="cls-46" d="M338.69,376.83v2.31h-179v-5.47A13.66,13.66,0,0,1,165,363.06a18.89,18.89,0,0,1,5.26-.75H322C331.22,362.32,338.69,368.82,338.69,376.83Z"/><circle class="cls-44" cx="243.78" cy="292" r="14.2" transform="translate(-95.97 463.07) rotate(-76.87)"/><circle class="cls-43" cx="243.78" cy="292" r="11.26" transform="translate(-95.93 463.15) rotate(-76.88)"/><path class="cls-47" d="M46.53,374.63,146.61,176.45a3.35,3.35,0,0,1,4.53-1.49l.22.12a3.42,3.42,0,0,1,1.47,4.58L52.75,377.84a3.35,3.35,0,0,1-4.53,1.49l-.22-.12A3.41,3.41,0,0,1,46.53,374.63Z"/><path class="cls-48" d="M61.84,350v-.18a2.62,2.62,0,0,1,2.72-2.5h46.11a2.62,2.62,0,0,1,2.72,2.5V350a2.62,2.62,0,0,1-2.72,2.5H64.56A2.62,2.62,0,0,1,61.84,350Z"/><path class="cls-48" d="M82.67,308.88v-.18a2.58,2.58,0,0,1,2.66-2.5h48.06a2.58,2.58,0,0,1,2.66,2.5v.18a2.58,2.58,0,0,1-2.66,2.5H85.33A2.58,2.58,0,0,1,82.67,308.88Z"/><path class="cls-48" d="M101.05,269.41v-.18a2.5,2.5,0,0,1,2.5-2.5H148.7a2.5,2.5,0,0,1,2.5,2.5v.18a2.5,2.5,0,0,1-2.5,2.5H103.55A2.5,2.5,0,0,1,101.05,269.41Z"/><path class="cls-48" d="M118.39,234.9v-.18a2.5,2.5,0,0,1,2.5-2.5H166a2.5,2.5,0,0,1,2.5,2.5v.18a2.5,2.5,0,0,1-2.5,2.5H120.89A2.5,2.5,0,0,1,118.39,234.9Z"/><path class="cls-48" d="M136.74,202.12v-.18a2.5,2.5,0,0,1,2.5-2.5h45.15a2.5,2.5,0,0,1,2.5,2.5v.18a2.5,2.5,0,0,1-2.5,2.5H139.24A2.49,2.49,0,0,1,136.74,202.12Z"/><path class="cls-49" d="M97.82,374.8l95.39-196.63a3.16,3.16,0,0,1,4.33-1.48l.2.12a3.48,3.48,0,0,1,1.41,4.55L103.75,378a3.15,3.15,0,0,1-4.32,1.48l-.21-.12A3.47,3.47,0,0,1,97.82,374.8Z"/><path class="cls-16" d="M114,161s30.15-11.07,58-4.71c3.45.79,6.73-19.54,6.73-19.54l-35.35-23.48L118.88,123.6Z"/><polygon class="cls-17" points="168.18 194.47 172.01 184.66 161.69 180.94 158.47 192.35 168.18 194.47"/><path class="cls-50" d="M181.3,201.43c-.54,1.43-24.29,0-25.35-1.23a1.71,1.71,0,0,1-.25-1.35c.28-2.38,2.17-6.48,2.25-6.75,5.22.6,6.73.53,11.53.82,1.52.84,10.34,3.8,11.75,7.16A1.68,1.68,0,0,1,181.3,201.43Z"/><path class="cls-51" d="M181.3,201.43c-.54,1.43-24.29,0-25.35-1.23a1.71,1.71,0,0,1-.25-1.35,99.12,99.12,0,0,0,13.2,1.65,113.55,113.55,0,0,0,12.33-.42A1.68,1.68,0,0,1,181.3,201.43Z"/><polygon class="cls-17" points="125.63 224.82 128.29 212.77 118.21 209.78 115.87 222.94 125.63 224.82"/><path class="cls-50" d="M138.91,231.45c-.51,1.45-24.29.61-25.37-.6a1.77,1.77,0,0,1-.28-1.34c.22-2.39,2-6.54,2.08-6.81,5.23.47,6.75.36,11.55.54,1.54.81,10.43,3.55,11.92,6.87A1.66,1.66,0,0,1,138.91,231.45Z"/><path class="cls-51" d="M138.91,231.45c-.51,1.45-24.29.61-25.37-.6a1.77,1.77,0,0,1-.28-1.34,100,100,0,0,0,13.24,1.32,109.84,109.84,0,0,0,12.31-.72A1.66,1.66,0,0,1,138.91,231.45Z"/><path class="cls-18" d="M159.25,98.82s.71,6.44,1.6,8.9c1.73,4.77,29,23.7,29.4,27.16.58,5.53-18.39,55.22-18.39,55.22-1.35-.43-11.4-3.51-13.09-5.9,0,0,10.27-36.28,8.75-40.21-1.29-3.35-20.42-11-20.42-11s-3.46,26.23-6.84,44.64c-2.86,15.58-11.46,41.43-11.46,41.43-3.15-.18-10.21-1.28-14.77-3.63,0,0,5.65-25.05,7.81-47.89,1.93-20.42,2.63-67.54,2.63-67.54Z"/><path class="cls-17" d="M151.37,54.57c-1,1.15-6.16,11.2-10.75,9.8-4.08-1.24-9.41-9.27-11.18-14.77,7.12-2.45,7.67-11.27,7.79-13.64.69.17,2.43.64,3,.8,3,.76,5.29,1.38,8.46,2.27l1.17.33h0a.56.56,0,0,0,0,.12,28.31,28.31,0,0,0-1.58,5.69,15.54,15.54,0,0,0-.13,1.58,10.63,10.63,0,0,0,.39,3.15c.12.4.26.8.42,1.19A9.65,9.65,0,0,0,151.37,54.57Z"/><path class="cls-52" d="M148.54,49.91c-7.64-4.76-6.57-13.56-6.59-15,0-.12-1.69,1.66-1.68,1.62,4,1,5,1.48,8.46,2.51l1.17.34a.56.56,0,0,0,0,.12c-.68,1.93-1.58,3.78-1.58,5.69a15.54,15.54,0,0,0-.13,1.58A10.63,10.63,0,0,0,148.54,49.91Z"/><path class="cls-53" d="M165.6,27.21a.79.79,0,0,1-.12.15,2,2,0,0,1-2.73.43c0,.23.5,3.09-.71,3.49s-14.53-7-14.53-7l1.08-7.85,0-1a7,7,0,0,1,2.73-1.84h0a8.23,8.23,0,0,1,5.15-.18c4.39,1.18,9.65,6.78,9.7,8.69.05,1.38-2.31.85-2.31.85S166.8,25.46,165.6,27.21Z"/><path class="cls-54" d="M165.6,27.21a.79.79,0,0,1-.12.15c-.81-2.49-4.12-5.83-4.12-5.83s1.68.11,2.74.13-2.77-4.58-6.72-6.59a16.23,16.23,0,0,0-6-1.5,8.23,8.23,0,0,1,5.15-.18c4.39,1.18,9.65,6.78,9.7,8.69.05,1.38-2.31.85-2.31.85S166.8,25.46,165.6,27.21Z"/><path class="cls-17" d="M161.43,38.17c-.14.82-1.09,1.41-1.4,2s-4.4,8.43-7.77,7.87c-3.75-.6-8.45-5.29-10.33-10.16-4.94-1.62-8.49-4-7.62-10.16,1.15-8.24,7.95-13.95,15.17-12.76a13.66,13.66,0,0,1,10.28,8.48,15.55,15.55,0,0,1,1.15,5,15.9,15.9,0,0,1-.13,3.29,24.64,24.64,0,0,1-1.17,4.18.45.45,0,0,0,.13.51A10.11,10.11,0,0,1,161.43,38.17Z"/><path class="cls-52" d="M158.78,26.89c.28,3.34-3.56.47-3.56.47-1.55,3.31-8.1,6.09-8.1,6.09l.69-4.7,8.36-7.67,3.59,2.33a15.55,15.55,0,0,1,1.15,5A9.86,9.86,0,0,1,158.78,26.89Z"/><path class="cls-53" d="M161.79,27.22c-.81.82-4.07-2.84-4.07-2.84s.46,2.05-.4,2.52c-.57.32-1.41-.22-2.59-1.22-2.93,5.63-10.41,10.76-10.41,10.76L136.65,41a.4.4,0,0,1-.62-.35l.21-3.23-1.37,1.4s-.29-1.18-1-8.65,3.21-12.93,7.38-14.89c2.84-1.33,7.34-1.93,10.66-.08l1-.38,6.4,3.31S162.61,26.4,161.79,27.22Z"/><path class="cls-17" d="M145.55,31.17c2,1.34,2.8,3.62,1.73,5.09s-3.57,1.58-5.6.24-2.8-3.61-1.73-5.09S143.52,29.83,145.55,31.17Z"/><path class="cls-55" d="M157.24,33.85c.32.11.4.66.19,1.24s-.65,1-1,.85-.4-.65-.19-1.23S156.93,33.75,157.24,33.85Z"/><path class="cls-56" d="M159.48,31.57a3.08,3.08,0,0,0-3.84-.12"/><path class="cls-56" d="M158.1,42.56a5.09,5.09,0,0,1-3.38-2"/><path class="cls-57" d="M135.72,48.19s7.3,9.9,9.27,9.46c4.57-1,6.14-7.94,6.14-7.94l9.29,4.61,4.31,45.83c-8.15,3.41-23.62,4.24-33.95.55,3.7-12.55.77-26.83-3.62-44.77Z"/><path class="cls-58" d="M145.21,58.15c2.11,14.09,3.37,29.49,2.17,44.55"/><path class="cls-59" d="M135.32,46.85s6.89,8.27,8,9.24c.81.74,1.84,1.54,1.84,1.54l1.13-1.78c.12-.2,4.51-6.22,4.51-6.22l2.12.68.1,7.51s-2.31-1.24-3.69-1a38.6,38.6,0,0,0-4,1.27,32.46,32.46,0,0,0-4.71-1.21c-1.28-.09-3.41,1.19-3.41,1.19l-2.9-8.48Z"/><path class="cls-8" d="M144.61,86.46c0,5.84-3.38,17.77-4.56,31.38-.7,8.08-6.06,48.33-6.72,50.39-1,3.23-17.64-.25-20-5.25-1.23-2.63,7.84-52,6.55-70.46-.63-9-2.25-26.34,1-34,3.13-7.41,11.51-11.68,11.51-11.68C133.17,46.93,144.61,65,144.61,86.46Z"/><path class="cls-35" d="M146,80.78c0-12.1-4-25.81-10.72-36.9-1.44,1.11-3.46,3-4.34,3.84,2.08,4.2,1.77,15.33,2.12,15.84s4.32,1.8,7,2.64c-1.28,3-2.52,5.57-2.42,7.22C137.64,74.78,143.87,79.19,146,80.78Z"/><path class="cls-35" d="M118.47,151.79c6.14-.56,11.27-2.43,14.89-6.15,0,0,.89,2.17.32,2.88-2.2,2.76-11.84,6.38-14.67,5.31C118.25,153.54,118.47,151.79,118.47,151.79Z"/><path class="cls-8" d="M185.53,130c-.13.39-17.73-14-24.13-20.45-7.9-7.9-10.51-24-10.62-25.88-.74-12-1.72-34.68-1.72-34.68s8.46,1.83,12.79,4.77c1.86,1.85,2.59,15.41,2.86,23.82,0,1.54.86,20.27,2.42,26.64C168.81,111,186.69,126.56,185.53,130Z"/><path class="cls-35" d="M148.28,47.79c.67,11,1.36,24.21,2.29,35.19,2.33-2.64,6.27-7.21,6.4-7.79.34-1.52-2.07-5.21-4.16-7.3l-.08-.16c3.46-1.71,7.82-3.32,7.68-3.91-.8-3.39-6.68-13.3-8.53-14.63A6.25,6.25,0,0,0,148.28,47.79Z"/><path class="cls-17" d="M198.76,71.11c0,1-3.4.35-4,.52a33.34,33.34,0,0,0-3.64,1.63,8.89,8.89,0,0,1-4.36,5l-.7.38c-3.26,1.79-6.32,4-6.32,4L177,74.45l5.87-2.75s.18-.51.47-1.27c.83-2.21,2.54-6.56,3.32-7.2a16.9,16.9,0,0,1,4.18-1.69c1.18-.33,5.48-.15,5.74.7.32,1-4,.92-4.75,1.2a19.27,19.27,0,0,0-2.58,1.36,28.59,28.59,0,0,1,3.94-.71c1,0,4.35.27,4.54,1.16.26,1.2-3.82.74-4.22.89l-3.18,1.17s2.14-.28,3.87-.46,4.64,1,4.54,1.75c-.11,1-3.07.23-4.21.4a27.93,27.93,0,0,0-3.63,1.17c.34-.07,3.12-.63,3.86-.64S198.78,70.26,198.76,71.11Z"/><path class="cls-52" d="M186,78.69c-3.26,1.79-6.32,4-6.32,4L177,74.45l5.87-2.75s.18-.51.47-1.27Z"/><path class="cls-8" d="M131.79,50.23c4.47,6.33,21,30.47,23.53,29.76,3-.81,26.24-8.67,26.24-8.67l2.34,14.86s-28.58,11.52-34,11.71-18.82-13.84-23.74-19.14S121.6,65.49,123.36,59C124.8,53.71,131.17,49.35,131.79,50.23Z"/><path class="cls-34" d="M123.87,77.85a148.62,148.62,0,0,0,19.37,16.94"/><line class="cls-34" x1="154.35" y1="96.94" x2="165.48" y2="93.23"/><path class="cls-34" d="M154.18,79.4a2.24,2.24,0,0,0,1.52.49c.77,0,8.69-2.82,8.69-2.82"/></g></svg>